<?xml version="1.0" encoding="UTF-8" standalone="no"?>
<!-- Generator: Adobe Illustrator 16.0.0, SVG Export Plug-In . SVG Version: 6.00 Build 0)  -->

<svg
   xmlns:dc="http://purl.org/dc/elements/1.1/"
   xmlns:cc="http://creativecommons.org/ns#"
   xmlns:rdf="http://www.w3.org/1999/02/22-rdf-syntax-ns#"
   xmlns:svg="http://www.w3.org/2000/svg"
   xmlns="http://www.w3.org/2000/svg"
   xmlns:sodipodi="http://sodipodi.sourceforge.net/DTD/sodipodi-0.dtd"
   xmlns:inkscape="http://www.inkscape.org/namespaces/inkscape"
   version="1.1"
   id="RU_Download_on_the"
   x="0px"
   y="0px"
   width="167.26416"
   height="48"
   viewBox="0 0 167.26414 48"
   enable-background="new 0 0 135 40"
   xml:space="preserve"
   inkscape:version="0.91 r13725"
   sodipodi:docname="app-store-ru.svg"><metadata
     id="metadata7668"><rdf:RDF><cc:Work
         rdf:about=""><dc:format>image/svg+xml</dc:format><dc:type
           rdf:resource="http://purl.org/dc/dcmitype/StillImage" /><dc:title /></cc:Work></rdf:RDF></metadata><defs
     id="defs7666" /><sodipodi:namedview
     pagecolor="#ffffff"
     bordercolor="#666666"
     borderopacity="1"
     objecttolerance="10"
     gridtolerance="10"
     guidetolerance="10"
     inkscape:pageopacity="0"
     inkscape:pageshadow="2"
     inkscape:window-width="1877"
     inkscape:window-height="1059"
     id="namedview7664"
     showgrid="false"
     fit-margin-top="0"
     fit-margin-left="0"
     fit-margin-right="0"
     fit-margin-bottom="0"
     inkscape:zoom="2.9122324"
     inkscape:cx="93.171247"
     inkscape:cy="-13.19647"
     inkscape:window-x="43"
     inkscape:window-y="21"
     inkscape:window-maximized="1"
     inkscape:current-layer="RU_Download_on_the" /><g
     id="g3975"><path
       d="M 167.26381,43.188442 C 167.26381,45.846733 165.11055,48 162.44723,48 L 4.8228567,48 C 2.1607964,48 -7.6293945e-6,45.846733 -7.6293945e-6,43.188442 l 0,-38.3706028 C -7.6293945e-6,2.160804 2.1607964,0 4.8228567,0 L 162.44597,0 c 2.66458,0 4.81658,2.160804 4.81658,4.8178392 l 0.002,38.3706028 0,0 z"
       id="path7612"
       inkscape:connector-curvature="0" /><g
       transform="matrix(1.1415856,0,0,1.1415856,11.453443,0.53828722)"
       id="g7614"><g
         id="g7616"><path
           d="m 30.128,19.784 c -0.029,-3.223 2.639,-4.791 2.761,-4.864 -1.511,-2.203 -3.853,-2.504 -4.676,-2.528 -1.967,-0.207 -3.875,1.177 -4.877,1.177 -1.022,0 -2.565,-1.157 -4.228,-1.123 -2.14,0.033 -4.142,1.272 -5.24,3.196 -2.266,3.923 -0.576,9.688 1.595,12.859 1.086,1.553 2.355,3.287 4.016,3.226 1.625,-0.067 2.232,-1.036 4.193,-1.036 1.943,0 2.513,1.036 4.207,0.997 1.744,-0.028 2.842,-1.56 3.89,-3.127 1.255,-1.78 1.759,-3.533 1.779,-3.623 -0.041,-0.014 -3.387,-1.291 -3.42,-5.154 z"
           id="path7618"
           inkscape:connector-curvature="0"
           style="fill:#ffffff" /><path
           d="m 26.928,10.306 c 0.874,-1.093 1.472,-2.58 1.306,-4.089 -1.265,0.056 -2.847,0.875 -3.758,1.944 -0.806,0.942 -1.526,2.486 -1.34,3.938 1.421,0.106 2.88,-0.717 3.792,-1.793 z"
           id="path7620"
           inkscape:connector-curvature="0"
           style="fill:#ffffff" /></g></g><g
       transform="matrix(0.99715553,0,0,0.99715553,16.916806,2.0621616)"
       id="g7622"><path
         d="m 53.645,31.504 -2.271,0 -1.244,-3.909 -4.324,0 -1.185,3.909 -2.211,0 4.284,-13.308 2.646,0 4.305,13.308 z M 49.755,25.955 48.63,22.48 c -0.119,-0.355 -0.342,-1.191 -0.671,-2.507 l -0.04,0 c -0.131,0.566 -0.342,1.402 -0.632,2.507 l -1.105,3.475 3.573,0 z"
         id="path7624"
         inkscape:connector-curvature="0"
         style="fill:#ffffff" /><path
         d="m 64.662,26.588 c 0,1.632 -0.441,2.922 -1.323,3.869 -0.79,0.843 -1.771,1.264 -2.942,1.264 -1.264,0 -2.172,-0.454 -2.725,-1.362 l -0.04,0 0,5.055 -2.132,0 0,-10.347 c 0,-1.026 -0.027,-2.079 -0.079,-3.159 l 1.875,0 0.119,1.521 0.04,0 c 0.711,-1.146 1.79,-1.718 3.238,-1.718 1.132,0 2.077,0.447 2.833,1.342 0.758,0.896 1.136,2.074 1.136,3.535 z m -2.172,0.078 c 0,-0.934 -0.21,-1.704 -0.632,-2.31 -0.461,-0.632 -1.08,-0.948 -1.856,-0.948 -0.526,0 -1.004,0.176 -1.431,0.523 -0.428,0.35 -0.708,0.807 -0.839,1.373 -0.066,0.264 -0.099,0.48 -0.099,0.65 l 0,1.6 c 0,0.698 0.214,1.287 0.642,1.768 0.428,0.481 0.984,0.721 1.668,0.721 0.803,0 1.428,-0.31 1.875,-0.928 0.448,-0.619 0.672,-1.435 0.672,-2.449 z"
         id="path7626"
         inkscape:connector-curvature="0"
         style="fill:#ffffff" /><path
         d="m 75.699,26.588 c 0,1.632 -0.441,2.922 -1.324,3.869 -0.789,0.843 -1.77,1.264 -2.941,1.264 -1.264,0 -2.172,-0.454 -2.724,-1.362 l -0.04,0 0,5.055 -2.132,0 0,-10.347 c 0,-1.026 -0.027,-2.079 -0.079,-3.159 l 1.875,0 0.119,1.521 0.04,0 c 0.71,-1.146 1.789,-1.718 3.238,-1.718 1.131,0 2.076,0.447 2.834,1.342 0.755,0.896 1.134,2.074 1.134,3.535 z m -2.172,0.078 c 0,-0.934 -0.211,-1.704 -0.633,-2.31 -0.461,-0.632 -1.078,-0.948 -1.855,-0.948 -0.527,0 -1.004,0.176 -1.432,0.523 -0.428,0.35 -0.707,0.807 -0.838,1.373 -0.065,0.264 -0.099,0.48 -0.099,0.65 l 0,1.6 c 0,0.698 0.214,1.287 0.64,1.768 0.428,0.48 0.984,0.721 1.67,0.721 0.803,0 1.428,-0.31 1.875,-0.928 0.448,-0.619 0.672,-1.435 0.672,-2.449 z"
         id="path7628"
         inkscape:connector-curvature="0"
         style="fill:#ffffff" /><path
         d="m 88.039,27.772 c 0,1.132 -0.393,2.053 -1.182,2.764 -0.867,0.777 -2.074,1.165 -3.625,1.165 -1.432,0 -2.58,-0.276 -3.449,-0.829 l 0.494,-1.777 c 0.936,0.566 1.963,0.85 3.082,0.85 0.803,0 1.428,-0.182 1.877,-0.544 0.447,-0.362 0.67,-0.848 0.67,-1.454 0,-0.54 -0.184,-0.995 -0.553,-1.364 -0.367,-0.369 -0.98,-0.712 -1.836,-1.029 -2.33,-0.869 -3.494,-2.142 -3.494,-3.816 0,-1.094 0.408,-1.991 1.225,-2.689 0.814,-0.699 1.9,-1.048 3.258,-1.048 1.211,0 2.217,0.211 3.02,0.632 l -0.533,1.738 c -0.75,-0.408 -1.598,-0.612 -2.547,-0.612 -0.75,0 -1.336,0.185 -1.756,0.553 -0.355,0.329 -0.533,0.73 -0.533,1.205 0,0.526 0.203,0.961 0.611,1.303 0.355,0.316 1,0.658 1.936,1.027 1.145,0.461 1.986,1 2.527,1.618 0.539,0.616 0.808,1.387 0.808,2.307 z"
         id="path7630"
         inkscape:connector-curvature="0"
         style="fill:#ffffff" /><path
         d="m 95.088,23.508 -2.35,0 0,4.659 c 0,1.185 0.414,1.777 1.244,1.777 0.381,0 0.697,-0.033 0.947,-0.099 l 0.059,1.619 c -0.42,0.157 -0.973,0.236 -1.658,0.236 -0.842,0 -1.5,-0.257 -1.975,-0.77 -0.473,-0.514 -0.711,-1.376 -0.711,-2.587 l 0,-4.837 -1.4,0 0,-1.6 1.4,0 0,-1.757 2.094,-0.632 0,2.389 2.35,0 0,1.602 z"
         id="path7632"
         inkscape:connector-curvature="0"
         style="fill:#ffffff" /><path
         d="m 105.691,26.627 c 0,1.475 -0.422,2.686 -1.264,3.633 -0.883,0.975 -2.055,1.461 -3.516,1.461 -1.408,0 -2.529,-0.467 -3.365,-1.401 -0.836,-0.934 -1.254,-2.113 -1.254,-3.534 0,-1.487 0.43,-2.705 1.293,-3.652 0.861,-0.948 2.023,-1.422 3.484,-1.422 1.408,0 2.541,0.467 3.396,1.402 0.818,0.907 1.226,2.078 1.226,3.513 z m -2.212,0.069 c 0,-0.885 -0.189,-1.644 -0.572,-2.277 -0.447,-0.766 -1.086,-1.148 -1.914,-1.148 -0.857,0 -1.508,0.383 -1.955,1.148 -0.383,0.634 -0.572,1.405 -0.572,2.317 0,0.885 0.189,1.644 0.572,2.276 0.461,0.766 1.105,1.148 1.936,1.148 0.814,0 1.453,-0.39 1.914,-1.168 0.393,-0.645 0.591,-1.412 0.591,-2.296 z"
         id="path7634"
         inkscape:connector-curvature="0"
         style="fill:#ffffff" /><path
         d="m 112.621,23.783 c -0.211,-0.039 -0.436,-0.059 -0.672,-0.059 -0.75,0 -1.33,0.283 -1.738,0.85 -0.355,0.5 -0.533,1.132 -0.533,1.895 l 0,5.035 -2.131,0 0.02,-6.574 c 0,-1.106 -0.027,-2.113 -0.08,-3.021 l 1.857,0 0.078,1.836 0.059,0 c 0.225,-0.631 0.58,-1.139 1.066,-1.52 0.475,-0.343 0.988,-0.514 1.541,-0.514 0.197,0 0.375,0.014 0.533,0.039 l 0,2.033 z"
         id="path7636"
         inkscape:connector-curvature="0"
         style="fill:#ffffff" /><path
         d="m 122.156,26.252 c 0,0.382 -0.025,0.704 -0.078,0.967 l -6.396,0 c 0.025,0.948 0.334,1.673 0.928,2.173 0.539,0.447 1.236,0.671 2.092,0.671 0.947,0 1.811,-0.151 2.588,-0.454 l 0.334,1.48 c -0.908,0.396 -1.98,0.593 -3.217,0.593 -1.488,0 -2.656,-0.438 -3.506,-1.313 -0.848,-0.875 -1.273,-2.05 -1.273,-3.524 0,-1.447 0.395,-2.652 1.186,-3.613 0.828,-1.026 1.947,-1.539 3.355,-1.539 1.383,0 2.43,0.513 3.141,1.539 0.563,0.815 0.846,1.823 0.846,3.02 z m -2.033,-0.553 c 0.014,-0.632 -0.125,-1.178 -0.414,-1.639 -0.369,-0.593 -0.936,-0.889 -1.699,-0.889 -0.697,0 -1.264,0.289 -1.697,0.869 -0.355,0.461 -0.566,1.014 -0.631,1.658 l 4.441,0 z"
         id="path7638"
         inkscape:connector-curvature="0"
         style="fill:#ffffff" /></g><g
       transform="matrix(1.0653016,0,0,1.0653016,14.026732,0.83546461)"
       id="g7640"><g
         id="g7642"><path
           d="m 43.424,7.273 c 0.227,-0.136 0.483,-0.25 0.771,-0.344 0.287,-0.094 0.625,-0.141 1.014,-0.141 0.627,0 1.121,0.149 1.483,0.446 0.362,0.297 0.543,0.698 0.543,1.203 0,0.401 -0.121,0.737 -0.363,1.009 -0.242,0.272 -0.552,0.453 -0.927,0.543 l 0,0.029 c 0.207,0.033 0.403,0.089 0.587,0.17 0.185,0.081 0.347,0.189 0.485,0.325 0.139,0.136 0.249,0.294 0.33,0.476 0.08,0.181 0.121,0.381 0.121,0.602 0,0.362 -0.073,0.666 -0.219,0.912 -0.146,0.246 -0.336,0.446 -0.572,0.602 -0.235,0.155 -0.499,0.267 -0.79,0.334 -0.291,0.067 -0.582,0.102 -0.873,0.102 -0.311,0 -0.618,-0.033 -0.922,-0.097 -0.304,-0.064 -0.585,-0.171 -0.844,-0.32 l 0.262,-0.805 c 0.168,0.084 0.385,0.165 0.65,0.243 0.265,0.078 0.533,0.116 0.805,0.116 0.446,0 0.791,-0.1 1.033,-0.3 0.242,-0.201 0.364,-0.469 0.364,-0.805 0,-0.227 -0.049,-0.412 -0.146,-0.558 -0.098,-0.146 -0.224,-0.26 -0.379,-0.345 -0.155,-0.084 -0.328,-0.142 -0.519,-0.174 -0.191,-0.032 -0.38,-0.049 -0.567,-0.049 l -0.437,0 0,-0.797 0.437,0 c 0.2,0 0.386,-0.025 0.558,-0.078 C 45.48,9.521 45.629,9.448 45.755,9.354 45.881,9.26 45.98,9.148 46.051,9.019 46.121,8.89 46.157,8.744 46.157,8.582 46.157,8.291 46.053,8.063 45.846,7.898 45.639,7.733 45.361,7.65 45.012,7.65 c -0.239,0 -0.479,0.039 -0.718,0.116 -0.239,0.078 -0.453,0.162 -0.641,0.252 L 43.424,7.273 Z"
           id="path7644"
           inkscape:connector-curvature="0"
           style="fill:#ffffff" /><path
           d="m 51.755,13.433 -0.077,-0.543 -0.029,0 c -0.316,0.433 -0.775,0.65 -1.377,0.65 -0.214,0 -0.407,-0.036 -0.582,-0.107 -0.175,-0.071 -0.327,-0.168 -0.456,-0.291 -0.13,-0.123 -0.229,-0.268 -0.301,-0.437 -0.071,-0.168 -0.106,-0.353 -0.106,-0.553 0,-0.588 0.239,-1.03 0.718,-1.324 0.479,-0.294 1.157,-0.441 2.037,-0.441 l 0,-0.087 c 0,-0.621 -0.326,-0.931 -0.978,-0.931 -0.465,0 -0.875,0.117 -1.229,0.349 L 49.162,9.03 c 0.433,-0.271 0.972,-0.407 1.617,-0.407 1.233,0 1.85,0.65 1.85,1.95 l 0,1.736 c 0,0.485 0.023,0.86 0.068,1.125 l -0.942,0 z M 51.61,11.086 c -0.585,0 -1.021,0.074 -1.307,0.223 -0.286,0.149 -0.429,0.392 -0.429,0.728 0,0.246 0.067,0.43 0.202,0.553 0.135,0.123 0.306,0.184 0.512,0.184 0.135,0 0.263,-0.024 0.386,-0.073 0.122,-0.048 0.229,-0.115 0.322,-0.199 0.094,-0.084 0.169,-0.186 0.228,-0.306 0.058,-0.12 0.086,-0.247 0.086,-0.383 l 0,-0.727 z"
           id="path7646"
           inkscape:connector-curvature="0"
           style="fill:#ffffff" /><path
           d="m 57.683,8.719 0,0.863 -1.96,0 0,3.851 -1.047,0 0,-4.714 3.007,0 z"
           id="path7648"
           inkscape:connector-curvature="0"
           style="fill:#ffffff" /><path
           d="m 63.677,11.018 c 0,0.375 -0.052,0.718 -0.155,1.028 -0.104,0.311 -0.247,0.576 -0.432,0.795 -0.184,0.22 -0.404,0.392 -0.659,0.514 -0.256,0.123 -0.538,0.185 -0.849,0.185 -0.621,0 -1.067,-0.223 -1.339,-0.669 l -0.02,0 0,2.483 -1.048,0 0,-5.083 c 0,-0.252 -0.003,-0.506 -0.01,-0.762 C 59.159,9.254 59.149,8.99 59.137,8.718 l 0.921,0 0.059,0.747 0.02,0 c 0.349,-0.562 0.879,-0.844 1.591,-0.844 0.277,0 0.535,0.058 0.771,0.174 0.236,0.117 0.441,0.28 0.616,0.49 0.175,0.21 0.312,0.462 0.412,0.757 0.1,0.295 0.15,0.62 0.15,0.976 z m -1.066,0.039 c 0,-0.233 -0.028,-0.448 -0.083,-0.645 C 62.473,10.215 62.392,10.047 62.286,9.908 62.18,9.769 62.05,9.659 61.898,9.578 61.746,9.497 61.576,9.457 61.388,9.457 c -0.148,0 -0.294,0.033 -0.437,0.097 -0.143,0.064 -0.267,0.152 -0.373,0.262 -0.107,0.11 -0.192,0.243 -0.257,0.398 -0.065,0.155 -0.098,0.32 -0.098,0.495 l 0,0.786 c 0,0.174 0.027,0.336 0.083,0.485 0.055,0.149 0.132,0.278 0.232,0.388 0.1,0.11 0.22,0.196 0.359,0.257 0.139,0.062 0.292,0.092 0.46,0.092 0.395,0 0.702,-0.15 0.922,-0.451 0.22,-0.301 0.332,-0.705 0.332,-1.209 z"
           id="path7650"
           inkscape:connector-curvature="0"
           style="fill:#ffffff" /><path
           d="m 69.305,8.719 -1.194,3.269 c -0.284,0.776 -0.561,1.411 -0.829,1.906 -0.269,0.495 -0.525,0.855 -0.771,1.082 -0.362,0.323 -0.747,0.521 -1.155,0.591 l -0.252,-0.882 c 0.271,-0.071 0.53,-0.21 0.776,-0.417 0.245,-0.207 0.442,-0.465 0.592,-0.776 0.052,-0.103 0.077,-0.174 0.077,-0.213 0,-0.039 -0.02,-0.113 -0.058,-0.223 l -1.708,-4.336 1.154,0 0.893,2.629 c 0.046,0.123 0.091,0.262 0.136,0.417 0.046,0.155 0.094,0.327 0.146,0.514 l 0.02,0 c 0.032,-0.104 0.068,-0.234 0.106,-0.393 0.039,-0.158 0.091,-0.341 0.155,-0.548 l 0.796,-2.619 1.116,0 z"
           id="path7652"
           inkscape:connector-curvature="0"
           style="fill:#ffffff" /><path
           d="m 71.119,10.678 0.484,0 c 0.355,0 0.631,-0.064 0.824,-0.194 0.193,-0.13 0.291,-0.288 0.291,-0.476 0,-0.194 -0.082,-0.349 -0.248,-0.465 -0.164,-0.116 -0.393,-0.175 -0.684,-0.175 -0.188,0 -0.377,0.031 -0.566,0.092 -0.191,0.062 -0.367,0.138 -0.529,0.228 L 70.42,9.01 c 0.271,-0.148 0.541,-0.25 0.811,-0.305 0.268,-0.055 0.537,-0.083 0.809,-0.083 0.215,0 0.43,0.021 0.646,0.063 0.215,0.042 0.408,0.113 0.576,0.213 0.168,0.1 0.307,0.231 0.412,0.393 0.107,0.162 0.16,0.362 0.16,0.602 0,0.149 -0.029,0.28 -0.088,0.393 -0.057,0.113 -0.135,0.213 -0.232,0.3 -0.096,0.087 -0.205,0.159 -0.324,0.213 -0.119,0.055 -0.242,0.096 -0.363,0.122 l 0,0.029 c 0.154,0.02 0.305,0.059 0.451,0.117 0.145,0.058 0.275,0.134 0.393,0.228 0.115,0.094 0.209,0.207 0.281,0.339 0.07,0.133 0.105,0.283 0.105,0.451 0,0.278 -0.066,0.511 -0.203,0.698 -0.135,0.188 -0.309,0.336 -0.52,0.446 -0.209,0.11 -0.441,0.189 -0.693,0.238 -0.252,0.048 -0.498,0.073 -0.736,0.073 -0.291,0 -0.58,-0.031 -0.863,-0.092 -0.285,-0.062 -0.541,-0.157 -0.768,-0.286 l 0.273,-0.689 c 0.168,0.091 0.359,0.167 0.576,0.228 0.217,0.061 0.438,0.092 0.664,0.092 0.355,0 0.629,-0.069 0.82,-0.208 0.189,-0.139 0.285,-0.312 0.285,-0.519 0,-0.136 -0.031,-0.25 -0.096,-0.344 -0.065,-0.094 -0.156,-0.17 -0.271,-0.228 -0.117,-0.058 -0.252,-0.099 -0.408,-0.121 -0.154,-0.023 -0.324,-0.034 -0.504,-0.034 l -0.494,0 0,-0.661 z"
           id="path7654"
           inkscape:connector-curvature="0"
           style="fill:#ffffff" /><path
           d="m 76.715,8.719 0,1.668 c 0,0.382 -0.006,0.725 -0.02,1.028 -0.014,0.304 -0.029,0.624 -0.049,0.96 l 0.02,0.019 c 0.123,-0.246 0.244,-0.486 0.363,-0.723 0.121,-0.236 0.242,-0.477 0.365,-0.723 l 1.164,-2.231 1.357,0 0,4.714 -0.99,0 0,-1.668 c 0,-0.349 0.01,-0.698 0.025,-1.047 0.016,-0.35 0.033,-0.702 0.053,-1.058 l -0.049,0 c -0.109,0.291 -0.219,0.543 -0.33,0.757 -0.109,0.213 -0.219,0.433 -0.328,0.66 -0.201,0.388 -0.4,0.776 -0.598,1.164 -0.197,0.388 -0.406,0.786 -0.625,1.193 l -1.357,0 0,-4.713 0.999,0 z"
           id="path7656"
           inkscape:connector-curvature="0"
           style="fill:#ffffff" /><path
           d="m 85.445,8.719 0,0.863 -1.435,0 0,3.851 -1.03,0 0,-3.851 -1.426,0 0,-0.863 3.891,0 z"
           id="path7658"
           inkscape:connector-curvature="0"
           style="fill:#ffffff" /><path
           d="m 90.789,10.853 c 0,0.09 -0.004,0.176 -0.01,0.257 -0.006,0.081 -0.016,0.154 -0.029,0.218 l -3.143,0 c 0.014,0.446 0.154,0.791 0.422,1.033 0.268,0.242 0.623,0.364 1.062,0.364 0.459,0 0.883,-0.074 1.271,-0.223 l 0.164,0.728 c -0.447,0.194 -0.973,0.291 -1.582,0.291 -0.367,0 -0.697,-0.057 -0.988,-0.17 -0.291,-0.113 -0.537,-0.273 -0.738,-0.48 -0.199,-0.207 -0.354,-0.456 -0.461,-0.747 -0.105,-0.291 -0.158,-0.617 -0.158,-0.979 0,-0.362 0.053,-0.697 0.158,-1.004 0.107,-0.307 0.258,-0.574 0.451,-0.8 0.195,-0.227 0.43,-0.404 0.703,-0.534 0.275,-0.129 0.582,-0.194 0.918,-0.194 0.297,0 0.566,0.053 0.811,0.16 0.242,0.106 0.449,0.258 0.619,0.456 0.172,0.197 0.303,0.434 0.393,0.708 0.092,0.274 0.137,0.58 0.137,0.916 z m -1,-0.271 c 0,-0.369 -0.088,-0.668 -0.266,-0.897 C 89.345,9.456 89.088,9.34 88.752,9.34 c -0.305,0 -0.562,0.116 -0.775,0.349 -0.213,0.233 -0.336,0.53 -0.369,0.893 l 2.181,0 z"
           id="path7660"
           inkscape:connector-curvature="0"
           style="fill:#ffffff" /><path
           d="M 95.01,8.758 C 95.198,8.726 95.436,8.7 95.727,8.68 96.018,8.66 96.315,8.651 96.62,8.651 c 0.193,0 0.412,0.012 0.654,0.034 0.242,0.022 0.475,0.074 0.693,0.155 0.221,0.081 0.404,0.202 0.553,0.364 0.149,0.162 0.225,0.381 0.225,0.659 0,0.143 -0.027,0.271 -0.078,0.383 -0.053,0.113 -0.121,0.212 -0.209,0.296 -0.088,0.084 -0.188,0.154 -0.301,0.208 -0.113,0.055 -0.23,0.096 -0.354,0.121 l 0.01,0.029 c 0.342,0.058 0.621,0.181 0.834,0.369 0.213,0.188 0.32,0.446 0.32,0.776 0,0.33 -0.092,0.592 -0.271,0.786 -0.182,0.194 -0.404,0.34 -0.67,0.437 -0.266,0.097 -0.545,0.159 -0.84,0.185 -0.293,0.025 -0.557,0.039 -0.789,0.039 -0.26,0 -0.514,-0.006 -0.762,-0.02 -0.25,-0.013 -0.457,-0.026 -0.625,-0.039 l 0,-4.675 z m 1.008,1.882 0.533,0 c 0.162,0 0.316,-0.011 0.461,-0.034 0.146,-0.022 0.273,-0.058 0.383,-0.106 0.111,-0.049 0.195,-0.113 0.258,-0.194 0.061,-0.081 0.092,-0.179 0.092,-0.296 0,-0.213 -0.088,-0.37 -0.268,-0.47 -0.178,-0.1 -0.457,-0.15 -0.838,-0.15 -0.109,0 -0.205,0.003 -0.287,0.01 -0.08,0.006 -0.191,0.016 -0.334,0.029 l 0,1.211 z m 0,2.085 c 0.129,0.013 0.238,0.022 0.324,0.029 0.088,0.007 0.189,0.01 0.307,0.01 0.143,0 0.287,-0.009 0.436,-0.029 0.148,-0.019 0.285,-0.056 0.408,-0.111 0.123,-0.054 0.221,-0.128 0.295,-0.222 0.074,-0.093 0.113,-0.217 0.113,-0.371 0,-0.27 -0.121,-0.456 -0.359,-0.559 -0.24,-0.103 -0.562,-0.154 -0.971,-0.154 l -0.553,0 0,1.407 z"
           id="path7662"
           inkscape:connector-curvature="0"
           style="fill:#ffffff" /></g></g></g></svg>