<?xml version="1.0" encoding="UTF-8" standalone="no"?>
<!-- Generator: Adobe Illustrator 15.1.0, SVG Export Plug-In . SVG Version: 6.00 Build 0)  -->

<svg
   xmlns:dc="http://purl.org/dc/elements/1.1/"
   xmlns:cc="http://creativecommons.org/ns#"
   xmlns:rdf="http://www.w3.org/1999/02/22-rdf-syntax-ns#"
   xmlns:svg="http://www.w3.org/2000/svg"
   xmlns="http://www.w3.org/2000/svg"
   xmlns:sodipodi="http://sodipodi.sourceforge.net/DTD/sodipodi-0.dtd"
   xmlns:inkscape="http://www.inkscape.org/namespaces/inkscape"
   version="1.1"
   id="SemiBold"
   x="0px"
   y="0px"
   width="167.26407"
   height="48"
   viewBox="0 0 167.26406 48"
   enable-background="new 0 0 216.457 75.108"
   xml:space="preserve"
   inkscape:version="0.91 r13725"
   sodipodi:docname="google-play-ru.svg"><metadata
     id="metadata7999"><rdf:RDF><cc:Work
         rdf:about=""><dc:format>image/svg+xml</dc:format><dc:type
           rdf:resource="http://purl.org/dc/dcmitype/StillImage" /><dc:title /></cc:Work></rdf:RDF></metadata><defs
     id="defs7997" /><sodipodi:namedview
     pagecolor="#ffffff"
     bordercolor="#666666"
     borderopacity="1"
     objecttolerance="10"
     gridtolerance="10"
     guidetolerance="10"
     inkscape:pageopacity="0"
     inkscape:pageshadow="2"
     inkscape:window-width="1115"
     inkscape:window-height="733"
     id="namedview7995"
     showgrid="false"
     fit-margin-top="0"
     fit-margin-left="0"
     fit-margin-right="0"
     fit-margin-bottom="0"
     inkscape:zoom="5.137279"
     inkscape:cx="192.18717"
     inkscape:cy="7.2345189"
     inkscape:window-x="314"
     inkscape:window-y="157"
     inkscape:window-maximized="0"
     inkscape:current-layer="SemiBold" /><g
     id="g3842"><path
       d="M 167.26381,43.188442 C 167.26381,45.846733 165.11055,48 162.44724,48 L 4.822864,48 C 2.160804,48 0,45.846733 0,43.188442 L 0,4.817839 C 0,2.160804 2.160804,0 4.822864,0 L 162.44598,0 c 2.66457,0 4.81659,2.160804 4.81659,4.817839 l 10e-4,38.370603 0,0 z"
       id="path7612"
       inkscape:connector-curvature="0" /><g
       transform="matrix(0.61778382,0,0,0.61778382,18.741629,-1.5242613)"
       id="g7899"><g
         id="g7901"><path
           id="path7903"
           d="m 147.652,53.585 -1.615,1.521 c -0.371,0.205 -0.742,0.443 -1.113,0.612 -1.121,0.509 -2.26,0.638 -3.273,0.638 -1.078,0 -2.768,-0.07 -4.49,-1.316 -2.396,-1.688 -3.443,-4.588 -3.443,-7.114 0,-5.231 4.26,-7.798 7.732,-7.798 1.215,0 2.463,0.304 3.477,0.945 1.686,1.113 2.121,2.562 2.363,3.34 l -7.934,3.205 -2.598,0.201 c 0.84,4.289 3.742,6.784 6.949,6.784 1.602,0 2.791,-0.521 3.883,-1.062 -0.002,0.002 0.217,-0.112 0.062,0.044 z m -4.787,-8.533 c 0.645,-0.234 0.979,-0.438 0.979,-0.906 0,-1.348 -1.523,-2.904 -3.344,-2.904 -1.35,0 -3.879,1.051 -3.879,4.695 0,0.569 0.066,1.176 0.102,1.781 l 6.142,-2.666 z"
           inkscape:connector-curvature="0"
           style="fill:#ffffff" /><path
           id="path7905"
           d="m 131.064,53.323 c 0,1.312 0.234,1.516 1.344,1.617 0.578,0.068 1.152,0.1 1.725,0.166 l -1.248,0.743 -5.947,0 c 0.779,-1.012 0.914,-1.112 0.914,-1.786 l 0,-0.753 -0.014,-20.063 -2.625,0 2.527,-1.218 4.824,0 c -1.045,0.605 -1.357,0.975 -1.492,2.155 l -0.008,19.139 z"
           inkscape:connector-curvature="0"
           style="fill:#ffffff" /><path
           id="path7907"
           d="m 121.842,41.784 c 0.773,0.637 2.393,1.988 2.393,4.553 0,2.499 -1.41,3.677 -2.83,4.792 -0.438,0.438 -0.945,0.915 -0.945,1.651 0,0.746 0.51,1.15 0.877,1.453 l 1.219,0.94 c 1.482,1.251 2.832,2.397 2.832,4.728 0,3.176 -3.072,6.375 -8.877,6.375 -4.889,0 -7.253,-2.328 -7.253,-4.824 0,-1.217 0.604,-2.938 2.601,-4.115 2.092,-1.279 4.928,-1.45 6.444,-1.551 -0.473,-0.611 -1.014,-1.252 -1.014,-2.299 0,-0.571 0.172,-0.912 0.338,-1.314 -0.369,0.035 -0.742,0.07 -1.08,0.07 -3.579,0 -5.602,-2.67 -5.602,-5.301 0,-1.553 0.707,-3.273 2.161,-4.521 1.925,-1.584 4.218,-1.857 6.041,-1.857 l 6.955,0 -2.162,1.221 -2.098,0 0,-10e-4 z m -2.391,14.981 c -0.277,-0.036 -0.443,-0.036 -0.777,-0.036 -0.305,0 -2.129,0.066 -3.541,0.54 -0.747,0.273 -2.906,1.08 -2.906,3.479 0,2.392 2.331,4.115 5.939,4.115 3.238,0 4.959,-1.553 4.959,-3.644 -0.002,-1.722 -1.115,-2.629 -3.674,-4.454 z m 0.969,-6.412 c 0.781,-0.777 0.848,-1.854 0.848,-2.466 0,-2.427 -1.445,-6.207 -4.252,-6.207 -0.875,0 -1.823,0.438 -2.36,1.118 -0.57,0.703 -0.742,1.615 -0.742,2.492 0,2.26 1.317,6.008 4.217,6.008 0.846,0 1.756,-0.411 2.289,-0.945 z"
           inkscape:connector-curvature="0"
           style="fill:#ffffff" /><path
           id="path7909"
           d="m 100.919,56.286 c -5.364,0 -8.234,-4.178 -8.234,-7.959 0,-4.418 3.608,-8.199 8.74,-8.199 4.961,0 8.068,3.884 8.068,7.962 0.001,3.981 -3.071,8.196 -8.574,8.196 z m 4.22,-2.729 c 0.816,-1.08 1.014,-2.428 1.014,-3.741 0,-2.973 -1.416,-8.641 -5.601,-8.641 -1.113,0 -2.234,0.436 -3.042,1.146 -1.318,1.181 -1.553,2.664 -1.553,4.119 0,3.334 1.647,8.834 5.737,8.834 1.321,0 2.668,-0.639 3.445,-1.717 z"
           inkscape:connector-curvature="0"
           style="fill:#ffffff" /><path
           id="path7911"
           d="m 82.96,56.286 c -5.365,0 -8.23,-4.178 -8.23,-7.959 0,-4.418 3.609,-8.199 8.739,-8.199 4.958,0 8.062,3.884 8.062,7.962 0,3.981 -3.067,8.196 -8.571,8.196 z m 4.221,-2.729 c 0.81,-1.08 1.012,-2.428 1.012,-3.741 0,-2.973 -1.42,-8.641 -5.601,-8.641 -1.117,0 -2.226,0.436 -3.036,1.146 -1.32,1.181 -1.554,2.664 -1.554,4.119 0,3.334 1.654,8.834 5.737,8.834 1.318,0 2.663,-0.639 3.442,-1.717 z"
           inkscape:connector-curvature="0"
           style="fill:#ffffff" /><path
           id="path7913"
           d="m 72.585,55.116 -4.524,1.035 c -1.833,0.289 -3.479,0.543 -5.222,0.543 -8.727,0 -12.051,-6.424 -12.051,-11.449 0,-6.141 4.711,-11.832 12.778,-11.832 1.707,0 3.35,0.251 4.846,0.658 2.371,0.667 3.479,1.487 4.173,1.969 l -2.628,2.496 -1.108,0.248 0.79,-1.26 c -1.07,-1.045 -3.037,-2.974 -6.77,-2.974 -4.991,0 -8.757,3.794 -8.757,9.333 0,5.949 4.3,11.545 11.194,11.545 2.026,0 3.069,-0.406 4.016,-0.787 l 0,-5.1 -4.776,0.257 2.532,-1.36 6.703,0 -0.819,0.789 c -0.222,0.188 -0.251,0.252 -0.313,0.504 -0.033,0.288 -0.063,1.204 -0.063,1.526 l -0.001,3.859 0,0 z"
           inkscape:connector-curvature="0"
           style="fill:#ffffff" /></g><g
         id="g7915"><path
           id="path7917"
           d="m 157.379,53.729 0,8.597 -1.707,0 0,-21.874 1.707,0 0,2.49 c 1.111,-1.608 3.143,-2.886 5.504,-2.886 4.232,0 7.084,3.211 7.084,8.294 0,5.049 -2.852,8.327 -7.084,8.327 -2.229,0.002 -4.223,-1.147 -5.504,-2.948 z m 10.754,-5.377 c 0,-3.831 -1.998,-6.753 -5.539,-6.753 -2.199,0 -4.301,1.729 -5.215,3.235 l 0,7.001 c 0.914,1.51 3.016,3.301 5.215,3.301 3.541,0 5.539,-2.948 5.539,-6.784 z"
           inkscape:connector-curvature="0"
           style="fill:#ffffff" /><path
           id="path7919"
           d="m 172.297,56.284 0,-21.87 1.707,0 0,21.871 -1.707,0 z"
           inkscape:connector-curvature="0"
           style="fill:#ffffff" /><path
           id="path7921"
           d="m 193.158,60.909 c 0.363,0.162 0.986,0.264 1.383,0.264 1.045,0 1.771,-0.428 2.424,-1.936 l 1.246,-2.82 -6.725,-15.965 1.902,0 5.77,13.834 5.713,-13.834 1.93,0 -8.201,19.314 c -0.85,1.99 -2.188,2.947 -4.027,2.947 -0.553,0 -1.279,-0.099 -1.707,-0.229 l 0.292,-1.575 z"
           inkscape:connector-curvature="0"
           style="fill:#ffffff" /><path
           id="path7923"
           d="m 188.172,56.237 c -0.115,-0.549 -0.201,-1.031 -0.264,-1.437 -0.053,-0.403 -0.082,-0.815 -0.082,-1.233 -0.586,0.858 -1.414,1.573 -2.475,2.137 -1.059,0.566 -2.064,0.846 -3.447,0.846 -1.662,0 -2.953,-0.409 -3.875,-1.239 -0.918,-0.829 -1.381,-1.952 -1.381,-3.372 0,-1.42 0.67,-2.572 2.004,-3.453 1.334,-0.885 3.059,-1.324 5.191,-1.324 l 3.982,0 0,-1.967 c 0,-1.134 -0.389,-2.023 -1.158,-2.67 -0.773,-0.646 -1.859,-0.975 -3.268,-0.975 -1.287,0 -2.332,0.299 -3.127,0.881 -0.787,0.594 -1.186,1.33 -1.186,2.217 l -1.746,0 -0.037,-0.084 c -0.062,-1.195 0.484,-2.246 1.648,-3.15 1.156,-0.905 2.674,-1.36 4.541,-1.36 1.859,0 3.367,0.448 4.502,1.342 1.135,0.886 1.703,2.164 1.703,3.837 l 0,7.811 c 0,0.561 0.025,1.103 0.098,1.631 0.072,0.529 0.188,1.057 0.34,1.566 l -1.965,0 0,-0.004 z m -6.057,-1.244 c 1.449,0 2.49,-0.323 3.557,-0.965 1.059,-0.638 1.777,-1.469 2.156,-2.475 l 0,-3.04 -4,0 c -1.529,0 -2.793,0.338 -3.789,1.021 -0.996,0.681 -1.502,1.504 -1.502,2.461 0,0.902 0.318,1.625 0.957,2.172 0.637,0.553 1.508,0.826 2.621,0.826 z"
           inkscape:connector-curvature="0"
           style="fill:#ffffff" /></g></g><g
       transform="matrix(0.61778382,0,0,0.61778382,18.741629,-1.5242613)"
       id="g7925"><polygon
         id="polygon7927"
         points="34.001,52.963 28.498,47.46 33.974,41.983 33.972,41.983 28.498,47.46 11.021,29.985 11.02,29.985 28.498,47.463 10.993,64.969 10.993,64.969 28.498,47.463 33.998,52.963 "
         style="fill:none" /><linearGradient
         gradientTransform="matrix(0.7071,0.7071,0.7071,-0.7071,-947.4174,-225.4017)"
         y2="509.96991"
         x2="856.35162"
         y1="495.52731"
         x1="879.42871"
         gradientUnits="userSpaceOnUse"
         id="SVGID_1_"><stop
           id="stop7930"
           style="stop-color:#D6FFA1"
           offset="0" /><stop
           id="stop7932"
           style="stop-color:#93E2A7"
           offset="0.3264" /><stop
           id="stop7934"
           style="stop-color:#00A3B5"
           offset="1" /></linearGradient><path
         id="path7936"
         d="M 33.972,41.983 12.636,30.252 c -0.604,-0.331 -1.163,-0.408 -1.615,-0.268 l 17.478,17.476 5.473,-5.477 z"
         style="fill:url(#SVGID_1_)"
         inkscape:connector-curvature="0" /><linearGradient
         gradientTransform="matrix(0.7071,0.7071,0.7071,-0.7071,-947.4174,-225.4017)"
         y2="500.0426"
         x2="895.93359"
         y1="507.8652"
         x1="866.00983"
         gradientUnits="userSpaceOnUse"
         id="SVGID_2_"><stop
           id="stop7939"
           style="stop-color:#FF177B"
           offset="0" /><stop
           id="stop7941"
           style="stop-color:#FFA976"
           offset="0.6721" /><stop
           id="stop7943"
           style="stop-color:#FFEC73"
           offset="1" /></linearGradient><path
         id="path7945"
         d="m 34.001,52.963 7.283,-4.005 c 1.477,-0.815 1.477,-2.143 0,-2.954 l -7.311,-4.021 -5.476,5.477 5.504,5.503 z"
         style="fill:url(#SVGID_2_)"
         inkscape:connector-curvature="0" /><linearGradient
         gradientTransform="matrix(0.7071,0.7071,0.7071,-0.7071,-947.4174,-225.4017)"
         y2="503.6626"
         x2="850.26837"
         y1="484.57419"
         x1="882.71289"
         gradientUnits="userSpaceOnUse"
         id="SVGID_3_"><stop
           id="stop7948"
           style="stop-color:#63FFD4"
           offset="0" /><stop
           id="stop7950"
           style="stop-color:#32A0BA"
           offset="0.4854" /><stop
           id="stop7952"
           style="stop-color:#1262A9"
           offset="0.8349" /><stop
           id="stop7954"
           style="stop-color:#064AA2"
           offset="1" /></linearGradient><path
         id="path7956"
         d="m 11.02,29.985 c -0.649,0.203 -1.069,0.86 -1.069,1.854 l 0.004,31.283 c 0,0.982 0.407,1.631 1.038,1.847 L 28.499,47.463 11.02,29.985 Z"
         style="fill:url(#SVGID_3_)"
         inkscape:connector-curvature="0" /><linearGradient
         gradientTransform="matrix(0.7071,0.7071,0.7071,-0.7071,-947.4174,-225.4017)"
         y2="473.41019"
         x2="874.51538"
         y1="499.72849"
         x1="894.49219"
         gradientUnits="userSpaceOnUse"
         id="SVGID_4_"><stop
           id="stop7959"
           style="stop-color:#FF4521"
           offset="0" /><stop
           id="stop7961"
           style="stop-color:#D43E65"
           offset="0.3411" /><stop
           id="stop7963"
           style="stop-color:#9F36B9"
           offset="0.7935" /><stop
           id="stop7965"
           style="stop-color:#8A33DB"
           offset="1" /></linearGradient><path
         id="path7967"
         d="m 10.993,64.969 c 0.454,0.153 1.024,0.082 1.643,-0.258 l 21.363,-11.748 -5.5,-5.5 -17.506,17.506 z"
         style="fill:url(#SVGID_4_)"
         inkscape:connector-curvature="0" /></g><g
       transform="matrix(0.53024344,0,0,0.53024344,23.358156,2.1368605)"
       id="g7969"><g
         id="g7971"><path
           id="path7973"
           d="m 51.46,11.639 c 0.735,-0.48 1.664,-0.816 2.849,-0.816 1.873,0 3.169,0.977 3.169,2.641 0,1.329 -0.976,2.354 -2.225,2.642 l 0,0.032 c 1.505,0.16 2.625,1.152 2.642,2.705 0,2.24 -1.953,3.137 -3.922,3.137 -0.977,0 -1.985,-0.208 -2.817,-0.704 l 0.368,-1.088 c 0.593,0.336 1.537,0.656 2.433,0.656 1.585,0 2.466,-0.865 2.466,-2.049 0,-1.617 -1.553,-2.081 -2.93,-2.081 l -0.64,0 0,-1.057 0.624,0 c 1.425,0 2.545,-0.88 2.545,-1.984 0,-1.104 -0.784,-1.713 -1.937,-1.713 -0.833,0 -1.665,0.336 -2.257,0.704 L 51.46,11.639 Z"
           inkscape:connector-curvature="0"
           style="fill:#ffffff" /><path
           id="path7975"
           d="m 61.892,18.409 -1.12,3.394 -1.44,0 3.682,-10.788 1.664,0 3.682,10.788 -1.488,0 -1.152,-3.394 -3.828,0 z m 3.554,-1.087 -1.072,-3.105 c -0.24,-0.704 -0.4,-1.345 -0.561,-1.969 l -0.032,0 c -0.16,0.624 -0.319,1.296 -0.544,1.952 l -1.057,3.122 3.266,0 z"
           inkscape:connector-curvature="0"
           style="fill:#ffffff" /><path
           id="path7977"
           d="m 76.071,11.015 0,1.168 -4.338,0 0,9.62 -1.409,0 0,-10.788 5.747,0 z"
           inkscape:connector-curvature="0"
           style="fill:#ffffff" /><path
           id="path7979"
           d="m 77.668,11.143 c 0.672,-0.112 1.553,-0.208 2.673,-0.208 1.377,0 2.385,0.32 3.025,0.896 0.576,0.512 0.944,1.296 0.944,2.257 0,0.977 -0.288,1.744 -0.833,2.305 -0.752,0.784 -1.937,1.185 -3.297,1.185 -0.416,0 -0.801,-0.017 -1.12,-0.096 l 0,4.321 -1.393,0 0.001,-10.66 0,0 z m 1.393,5.202 c 0.304,0.08 0.688,0.112 1.152,0.112 1.681,0 2.705,-0.833 2.705,-2.289 0,-1.44 -1.024,-2.129 -2.545,-2.129 -0.608,0 -1.072,0.048 -1.312,0.111 l 0,4.195 z"
           inkscape:connector-curvature="0"
           style="fill:#ffffff" /><path
           id="path7981"
           d="m 86.787,11.015 2.146,4.626 c 0.271,0.64 0.528,1.264 0.769,1.889 l 0.048,0 c 0.191,-0.545 0.399,-1.169 0.656,-1.938 l 1.696,-4.577 1.473,0 -2.272,5.57 c -0.576,1.44 -1.249,3.089 -2.018,4.081 -0.688,0.881 -1.473,1.329 -2.433,1.329 -0.368,0 -0.608,-0.032 -0.784,-0.097 l 0.128,-1.136 c 0.128,0.031 0.288,0.048 0.528,0.048 1.104,0 1.761,-1.072 2.112,-1.841 0.112,-0.24 0.08,-0.4 -0.048,-0.656 l -3.585,-7.299 1.584,0.001 0,0 z"
           inkscape:connector-curvature="0"
           style="fill:#ffffff" /><path
           id="path7983"
           d="m 94.884,11.639 c 0.735,-0.48 1.664,-0.816 2.849,-0.816 1.873,0 3.169,0.977 3.169,2.641 0,1.329 -0.976,2.354 -2.225,2.642 l 0,0.032 c 1.505,0.16 2.625,1.152 2.642,2.705 0,2.24 -1.953,3.137 -3.922,3.137 -0.977,0 -1.985,-0.208 -2.817,-0.704 l 0.368,-1.088 c 0.593,0.336 1.537,0.656 2.433,0.656 1.585,0 2.466,-0.865 2.466,-2.049 0,-1.617 -1.553,-2.081 -2.93,-2.081 l -0.64,0 0,-1.057 0.624,0 c 1.425,0 2.545,-0.88 2.545,-1.984 0,-1.104 -0.784,-1.713 -1.937,-1.713 -0.833,0 -1.665,0.336 -2.257,0.704 l -0.368,-1.025 z"
           inkscape:connector-curvature="0"
           style="fill:#ffffff" /><path
           id="path7985"
           d="m 104.884,11.015 0,4.546 c 0,1.696 -0.032,3.121 -0.128,4.562 l 0.048,0.016 c 0.528,-1.12 1.2,-2.288 1.984,-3.569 l 3.489,-5.554 1.394,0 0,10.788 -1.312,0 0,-4.594 c 0,-1.745 0.016,-3.025 0.127,-4.386 l -0.048,-0.017 c -0.528,1.185 -1.265,2.434 -2.001,3.618 l -3.377,5.378 -1.488,0 0,-10.788 1.312,0 z"
           inkscape:connector-curvature="0"
           style="fill:#ffffff" /><path
           id="path7987"
           d="m 116.549,12.199 -3.282,0 0,-1.185 7.987,0 0,1.185 -3.297,0 0,9.604 -1.408,0 0,-9.604 z"
           inkscape:connector-curvature="0"
           style="fill:#ffffff" /><path
           id="path7989"
           d="m 128.422,16.745 -4.178,0 0,3.889 4.674,0 0,1.169 -6.082,0 0,-10.788 5.842,0 0,1.168 -4.434,0 0,3.409 4.178,0 0,1.153 z"
           inkscape:connector-curvature="0"
           style="fill:#ffffff" /><path
           id="path7991"
           d="m 137.043,11.015 0,4.514 5.219,0 0,-4.514 1.408,0 0,10.788 -1.408,0 0,-5.058 -5.219,0 0,5.058 -1.408,0 0,-10.788 1.408,0 z"
           inkscape:connector-curvature="0"
           style="fill:#ffffff" /><path
           id="path7993"
           d="m 148.227,18.409 -1.119,3.394 -1.439,0 3.682,-10.788 1.664,0 3.682,10.788 -1.488,0 -1.152,-3.394 -3.83,0 z m 3.554,-1.087 -1.072,-3.105 c -0.24,-0.704 -0.4,-1.345 -0.561,-1.969 l -0.031,0 c -0.16,0.624 -0.32,1.296 -0.545,1.952 l -1.057,3.122 3.266,0 z"
           inkscape:connector-curvature="0"
           style="fill:#ffffff" /></g></g></g></svg>